<svg width="56" height="56" viewBox="0 0 56 56" fill="none" xmlns="http://www.w3.org/2000/svg">
<circle cx="28" cy="28" r="28" fill="url(#paint0_linear_83_38)"/>
<path d="M29.7453 15.75V16.8C33.7282 17.611 36.729 21.1422 36.729 25.375V26.4031C36.729 28.9789 37.6729 31.4562 39.3752 33.3812L39.779 33.8352C40.2373 34.3547 40.3519 35.0875 40.0681 35.7164C39.7844 36.3453 39.1624 36.75 38.475 36.75H17.5238C16.8363 36.75 16.2127 36.3453 15.9311 35.7164C15.6494 35.0875 15.7621 34.3547 16.2189 33.8352L16.6235 33.3812C18.328 31.4562 19.2697 28.9789 19.2697 26.4031V25.375C19.2697 21.1422 22.2214 17.611 26.2534 16.8V15.75C26.2534 14.7837 27.0336 14 27.9994 14C28.9651 14 29.7453 14.7837 29.7453 15.75ZM27.9994 42C27.0718 42 26.1825 41.6336 25.5278 40.9773C24.873 40.3211 24.5075 39.3805 24.5075 38.5H31.4912C31.4912 39.3805 31.1257 40.3211 30.471 40.9773C29.8162 41.6336 28.8778 42 27.9994 42Z" fill="white"/>
<defs>
<linearGradient id="paint0_linear_83_38" x1="11" y1="2.5" x2="45" y2="51.5" gradientUnits="userSpaceOnUse">
<stop stop-color="#F08300"/>
<stop offset="1" stop-color="#F0BB00"/>
</linearGradient>
</defs>
</svg>
