<svg width="56" height="56" viewBox="0 0 56 56" fill="none" xmlns="http://www.w3.org/2000/svg">
<circle cx="28" cy="28" r="28" fill="url(#paint0_linear_83_36)"/>
<path d="M42.6667 41.0952C42.6667 41.512 42.5011 41.9117 42.2064 42.2064C41.9117 42.5011 41.512 42.6666 41.0953 42.6666H17C16.0276 42.6666 15.0949 42.2803 14.4073 41.5927C13.7197 40.9051 13.3334 39.9724 13.3334 39V14.9047C13.3334 14.488 13.4989 14.0883 13.7936 13.7936C14.0883 13.4989 14.488 13.3333 14.9048 13.3333C15.3216 13.3333 15.7213 13.4989 16.016 13.7936C16.3107 14.0883 16.4762 14.488 16.4762 14.9047V39C16.4762 39.2891 16.7109 39.5238 17 39.5238H41.0953C41.512 39.5238 41.9117 39.6893 42.2064 39.984C42.5011 40.2787 42.6667 40.6784 42.6667 41.0952ZM32.1905 19.0952C32.1905 18.6784 32.3561 18.2787 32.6508 17.984C32.9455 17.6893 33.3452 17.5238 33.7619 17.5238H41.0953C41.512 17.5238 41.9117 17.6893 42.2064 17.984C42.5011 18.2787 42.6667 18.6784 42.6667 19.0952V26.4286C42.6667 26.8453 42.5011 27.245 42.2064 27.5397C41.9117 27.8344 41.512 28 41.0953 28C40.6785 28 40.2788 27.8344 39.9841 27.5397C39.6894 27.245 39.5238 26.8453 39.5238 26.4286V22.8876L31.2058 31.2057C30.9111 31.5 30.5117 31.6653 30.0953 31.6653C29.6788 31.6653 29.2794 31.5 28.9848 31.2057L25.9048 28.1257L21.2534 32.7771C20.9555 33.0547 20.5615 33.2058 20.1544 33.1986C19.7473 33.1914 19.3588 33.0265 19.0709 32.7386C18.783 32.4507 18.6181 32.0623 18.6109 31.6552C18.6037 31.2481 18.7548 30.8541 19.0324 30.5562L24.7943 24.7943C25.089 24.5 25.4884 24.3347 25.9048 24.3347C26.3212 24.3347 26.7206 24.5 27.0153 24.7943L30.0953 27.8743L37.3029 20.6666H33.7619C33.3452 20.6666 32.9455 20.5011 32.6508 20.2064C32.3561 19.9117 32.1905 19.512 32.1905 19.0952Z" fill="white"/>
<defs>
<linearGradient id="paint0_linear_83_36" x1="11" y1="2.5" x2="45" y2="51.5" gradientUnits="userSpaceOnUse">
<stop stop-color="#F08300"/>
<stop offset="1" stop-color="#F0BB00"/>
</linearGradient>
</defs>
</svg>
