<svg width="56" height="56" viewBox="0 0 56 56" fill="none" xmlns="http://www.w3.org/2000/svg">
<circle cx="28" cy="28" r="28" fill="url(#paint0_linear_82_23)"/>
<path d="M41.3333 13.7778H14.6667C13.1944 13.7778 12 14.9722 12 16.4444V34.2222C12 35.6944 13.1944 36.8889 14.6667 36.8889H25.3333L24.4444 39.5555H20.4444C19.7111 39.5555 19.1111 40.1555 19.1111 40.8889C19.1111 41.6222 19.7111 42.2222 20.4444 42.2222H35.5556C36.2917 42.2222 36.8889 41.625 36.8889 40.8889C36.8889 40.1528 36.2917 39.5555 35.5556 39.5555H31.5556L30.6667 36.8889H41.3333C42.8056 36.8889 44 35.6944 44 34.2222V16.4444C44 14.9722 42.8056 13.7778 41.3333 13.7778ZM40.4444 33.3333H15.5556V17.3333H40.4444V33.3333Z" fill="white"/>
<defs>
<linearGradient id="paint0_linear_82_23" x1="11" y1="2.5" x2="45" y2="51.5" gradientUnits="userSpaceOnUse">
<stop stop-color="#F08300"/>
<stop offset="1" stop-color="#F0BB00"/>
</linearGradient>
</defs>
</svg>
