<svg width="56" height="56" viewBox="0 0 56 56" fill="none" xmlns="http://www.w3.org/2000/svg">
<circle cx="28" cy="28" r="28" fill="url(#paint0_linear_83_37)"/>
<path d="M42.4957 32.011L40.1961 30.0386C40.305 29.3694 40.3611 28.6861 40.3611 28.0029C40.3611 27.3196 40.305 26.6363 40.1961 25.9671L42.4957 23.9947C42.6691 23.8458 42.7932 23.6474 42.8516 23.4259C42.9099 23.2045 42.8996 22.9704 42.8222 22.755L42.7906 22.6634C42.1575 20.8884 41.2096 19.2429 39.9925 17.8065L39.9293 17.7325C39.7817 17.5583 39.5849 17.4332 39.3649 17.3734C39.145 17.3137 38.9121 17.3222 38.6971 17.3979L35.8429 18.4158C34.7897 17.5494 33.6136 16.8661 32.3427 16.3871L31.7915 13.3933C31.7499 13.1681 31.641 12.9608 31.4792 12.7991C31.3175 12.6375 31.1105 12.529 30.8858 12.4881L30.791 12.4705C28.9619 12.1395 27.038 12.1395 25.209 12.4705L25.1142 12.4881C24.8895 12.529 24.6825 12.6375 24.5207 12.7991C24.3589 12.9608 24.25 13.1681 24.2084 13.3933L23.6537 16.4012C22.393 16.8803 21.2189 17.5632 20.1781 18.4228L17.3029 17.3979C17.0879 17.3216 16.8549 17.3128 16.6348 17.3726C16.4147 17.4323 16.2179 17.5579 16.0706 17.7325L16.0074 17.8065C14.7918 19.2439 13.844 20.8891 13.2094 22.6634L13.1778 22.755C13.0198 23.1952 13.1497 23.6883 13.5043 23.9947L15.8319 25.9882C15.7231 26.6504 15.6704 27.3266 15.6704 27.9993C15.6704 28.6756 15.7231 29.3518 15.8319 30.0104L13.5043 32.0039C13.3308 32.1529 13.2067 32.3513 13.1484 32.5728C13.0901 32.7942 13.1003 33.0282 13.1778 33.2437L13.2094 33.3353C13.8448 35.1104 14.7857 36.7482 16.0074 38.1922L16.0706 38.2662C16.2183 38.4403 16.415 38.5655 16.635 38.6253C16.855 38.685 17.0878 38.6765 17.3029 38.6008L20.1781 37.5758C21.2243 38.4388 22.3934 39.122 23.6537 39.5975L24.2084 42.6054C24.25 42.8306 24.3589 43.0379 24.5207 43.1995C24.6825 43.3612 24.8895 43.4697 25.1142 43.5105L25.209 43.5281C27.0548 43.861 28.9451 43.861 30.791 43.5281L30.8858 43.5105C31.1105 43.4697 31.3175 43.3612 31.4792 43.1995C31.641 43.0379 31.7499 42.8306 31.7915 42.6054L32.3427 39.6116C33.6131 39.1339 34.7958 38.4483 35.8429 37.5829L38.6971 38.6008C38.9121 38.6771 39.1451 38.6859 39.3652 38.6261C39.5853 38.5664 39.7821 38.4408 39.9293 38.2662L39.9925 38.1922C41.2142 36.7446 42.1551 35.1104 42.7906 33.3353L42.8222 33.2437C42.9801 32.8105 42.8502 32.3174 42.4957 32.011ZM37.7035 26.3827C37.7913 26.9145 37.837 27.4605 37.837 28.0064C37.837 28.5523 37.7913 29.0982 37.7035 29.6301L37.4718 31.0424L40.0943 33.293C39.6968 34.2119 39.1949 35.0817 38.5988 35.8853L35.3408 34.7265L34.2385 35.6352C33.3994 36.3255 32.4656 36.8679 31.4545 37.2483L30.1169 37.752L29.4885 41.1684C28.497 41.2811 27.4959 41.2811 26.5044 41.1684L25.876 37.7449L24.549 37.2342C23.5484 36.8538 22.6181 36.3114 21.786 35.6246L20.6837 34.7124L17.4047 35.8817C16.8079 35.0752 16.3093 34.2052 15.9091 33.2895L18.5597 31.0178L18.3315 29.6089C18.2472 29.0841 18.2016 28.5417 18.2016 28.0064C18.2016 27.4675 18.2437 26.9286 18.3315 26.4038L18.5597 24.995L15.9091 22.7233C16.3058 21.804 16.8079 20.9376 17.4047 20.131L20.6837 21.3004L21.786 20.3881C22.6181 19.7013 23.5484 19.1589 24.549 18.7786L25.8795 18.2749L26.5079 14.8515C27.4944 14.7387 28.502 14.7387 29.492 14.8515L30.1204 18.2679L31.458 18.7715C32.4656 19.1519 33.4029 19.6943 34.242 20.3846L35.3444 21.2933L38.6023 20.1346C39.1991 20.9411 39.6976 21.8111 40.0978 22.7268L37.4754 24.9774L37.7035 26.3827ZM28.0035 21.4553C24.5911 21.4553 21.8247 24.2307 21.8247 27.6542C21.8247 31.0776 24.5911 33.853 28.0035 33.853C31.4159 33.853 34.1823 31.0776 34.1823 27.6542C34.1823 24.2307 31.4159 21.4553 28.0035 21.4553ZM30.784 30.4437C30.4193 30.8106 29.9859 31.1015 29.5087 31.2998C29.0315 31.4981 28.52 31.5997 28.0035 31.5989C26.9538 31.5989 25.9673 31.1868 25.223 30.4437C24.8573 30.0778 24.5673 29.643 24.3696 29.1643C24.172 28.6855 24.0707 28.1723 24.0715 27.6542C24.0715 26.6011 24.4822 25.6114 25.223 24.8647C25.9673 24.118 26.9538 23.7095 28.0035 23.7095C29.0532 23.7095 30.0397 24.118 30.784 24.8647C31.1497 25.2306 31.4397 25.6654 31.6373 26.1441C31.835 26.6228 31.9363 27.136 31.9355 27.6542C31.9355 28.7073 31.5247 29.697 30.784 30.4437Z" fill="white"/>
<defs>
<linearGradient id="paint0_linear_83_37" x1="11" y1="2.5" x2="45" y2="51.5" gradientUnits="userSpaceOnUse">
<stop stop-color="#F08300"/>
<stop offset="1" stop-color="#F0BB00"/>
</linearGradient>
</defs>
</svg>
