<svg width="56" height="56" viewBox="0 0 56 56" fill="none" xmlns="http://www.w3.org/2000/svg">
<circle cx="28" cy="28" r="28" fill="url(#paint0_linear_83_34)"/>
<path d="M15.7731 13L15.1486 13.5892L13.589 15.1494L13 15.7741L13.4504 16.502L15.7731 20.3858L16.0848 20.9406H19.3448L23.7818 25.3448C19.8174 29.3284 14.7737 34.3906 14.5962 34.5692C12.858 36.3069 12.8547 39.1543 14.6295 40.811C16.3632 42.522 19.1884 42.5664 20.8357 40.811L20.8689 40.7755L27.6974 33.9101L34.5614 40.8099L34.6645 40.8798C36.406 42.522 39.1758 42.5442 40.8008 40.8099V40.7766H40.8341C42.5334 39.0378 42.5512 36.2115 40.8008 34.5681L40.7653 34.5348L34.9773 28.778C38.8719 28.414 41.9223 25.124 41.9788 21.1492H42.0132C42.0177 21.127 42.0132 21.1015 42.0132 21.0793V21.0449C42.1219 19.7622 41.8446 18.5349 41.1813 17.473L40.4203 16.2956L35.2546 21.4621L33.695 19.8321L38.9639 14.5613L37.4387 13.9376C36.4658 13.5095 35.4157 13.2848 34.3528 13.2774C30.0889 13.2774 26.5882 16.7794 26.5882 21.0449C26.5882 21.5087 26.688 21.9115 26.7612 22.3277C26.2765 22.8137 25.9126 23.212 25.3403 23.7846L20.9377 19.3804V16.0859L20.3831 15.7741L16.5008 13.4505L15.7731 13ZM34.3528 15.4967C34.5081 15.4967 34.6168 15.5877 34.7688 15.601L30.5748 19.7966L31.3368 20.5944L34.4571 23.819L35.2191 24.6168L39.6217 20.2127C39.6439 20.4679 39.8258 20.6543 39.7947 20.9406V21.0449C39.7947 24.1009 37.3034 26.5931 34.2486 26.5931C33.8415 26.5931 33.3479 26.4977 32.7932 26.3845L32.2031 26.2813L31.7872 26.6974L19.275 39.2497H19.2395V39.2852C18.4519 40.1474 17.0731 40.1685 16.1547 39.2497V39.2153H16.1192C15.2573 38.4274 15.2362 37.0482 16.1547 36.1294C16.5751 35.7077 24.7158 27.4941 28.7024 23.5072L29.1538 23.0567L28.9797 22.432C28.8744 21.9768 28.8164 21.512 28.8066 21.0449C28.8066 17.989 31.298 15.4967 34.3528 15.4967ZM16.1192 15.7741L18.7192 17.3698V18.4794L18.4774 18.7213H17.3682L15.7731 16.1214L16.1192 15.7741ZM32.3418 29.2629L39.2412 36.1294V36.1638H39.2745C40.1375 36.9516 40.1586 38.3309 39.2412 39.2497H39.2057V39.2852C38.4182 40.1474 37.0394 40.1685 36.1209 39.2497L29.257 32.3499L32.3418 29.2629Z" fill="white"/>
<defs>
<linearGradient id="paint0_linear_83_34" x1="11" y1="2.5" x2="45" y2="51.5" gradientUnits="userSpaceOnUse">
<stop stop-color="#F08300"/>
<stop offset="1" stop-color="#F0BB00"/>
</linearGradient>
</defs>
</svg>
